<svg xmlns="http://www.w3.org/2000/svg" width="1200" height="900" viewBox="0 0 1200 900" role="img" aria-label="homepage-dashboard">
  <defs>
    <linearGradient id="bg" x1="0" y1="0" x2="1" y2="1">
      <stop offset="0%" stop-color="#FFFBF8"/>
      <stop offset="55%" stop-color="#FFF1E8"/>
      <stop offset="100%" stop-color="#F7F0EA"/>
    </linearGradient>
    <linearGradient id="line" x1="0" y1="0" x2="1" y2="0">
      <stop offset="0%" stop-color="#F07020"/>
      <stop offset="100%" stop-color="#E85818"/>
    </linearGradient>
  </defs>
  <rect width="1200" height="900" fill="url(#bg)"/>
  <rect x="80" y="80" width="1040" height="740" rx="32" fill="#fff" stroke="#E8DDD4"/>
  <rect x="120" y="130" width="200" height="28" rx="8" fill="#FFF1E8"/>
  <rect x="120" y="190" width="280" height="90" rx="16" fill="#F7F0EA"/>
  <rect x="420" y="190" width="280" height="90" rx="16" fill="#F7F0EA"/>
  <rect x="720" y="190" width="280" height="90" rx="16" fill="#F7F0EA"/>
  <path d="M140 520 C280 500 340 420 460 400 C600 375 680 300 820 290 C960 280 1040 220 1080 180" fill="none" stroke="url(#line)" stroke-width="10" stroke-linecap="round"/>
  <path d="M140 520 C280 500 340 420 460 400 C600 375 680 300 820 290 C960 280 1040 220 1080 180 L1080 700 L140 700 Z" fill="#F07020" opacity="0.12"/>
</svg>
