<svg xmlns="http://www.w3.org/2000/svg" viewBox="0 0 64 64" fill="none">
  <rect width="64" height="64" rx="16" fill="#111"/>
  <path d="M36 14c2.2 4.2 5.8 7 10 7.6V28c-3.4-.2-6.5-1.4-9-3.4v12.8c0 7.2-5.8 13-13 13S11 44.6 11 37.4 16.8 24.4 24 24.4c1.1 0 2.1.1 3.1.4v7.3c-.9-.4-2-.6-3.1-.6-3.5 0-6.3 2.9-6.3 6.4S20.5 44 24 44s6.3-2.9 6.3-6.4V14H36z" fill="#fff"/>
  <path d="M34.5 12.5c2.2 4.2 5.8 7 10 7.6V26c-3.4-.2-6.5-1.4-9-3.4" stroke="#25F4EE" stroke-width="2" opacity=".9"/>
  <path d="M37.5 15.5c2.2 4.2 5.8 7 10 7.6" stroke="#FE2C55" stroke-width="2" opacity=".9"/>
</svg>
